<svg xmlns="http://www.w3.org/2000/svg" viewBox="0 0 120 120" width="120" height="120" role="img" aria-label="Rail of hanging garments">
  <g fill="none" stroke="#14479b" stroke-width="2.6" stroke-linecap="round">
    <path d="M12 20h96"/>
  </g>
  <g fill="none" stroke="#14479b" stroke-width="2.4" stroke-linecap="round" stroke-linejoin="round">
    <path d="M30 20v10M60 20v10M90 20v10"/>
    <path d="M20 30h20l6 10-5 4v34H19V44l-5-4z"/>
    <path d="M50 30h20l6 10-5 4v34H49V44l-5-4z"/>
    <path d="M80 30h20l6 10-5 4v34H79V44l-5-4z"/>
  </g>
  <g fill="#e9f0fb">
    <path d="M20 30h20l6 10-5 4v34H19V44l-5-4z"/>
  </g>
  <g fill="#cadcf5">
    <path d="M50 30h20l6 10-5 4v34H49V44l-5-4z"/>
  </g>
  <g fill="#a3c0ea">
    <path d="M80 30h20l6 10-5 4v34H79V44l-5-4z"/>
  </g>
  <g fill="none" stroke="#0e3272" stroke-width="2.4" stroke-linecap="round">
    <path d="M26 24a4 4 0 0 1 4-4M56 24a4 4 0 0 1 4-4M86 24a4 4 0 0 1 4-4"/>
  </g>
  <g fill="none" stroke="#1a5fc9" stroke-width="2" stroke-linecap="round">
    <path d="M24 52h12M54 52h12M84 52h12"/>
  </g>
</svg>
