<svg xmlns="http://www.w3.org/2000/svg" viewBox="0 0 64 44" width="64" height="44" role="img" aria-label="Delivery truck">
  <g fill="none" stroke="#1a5fc9" stroke-width="2.4" stroke-linecap="round" stroke-linejoin="round">
    <path d="M4 30V11a1 1 0 0 1 1-1h26a2 2 0 0 1 2 2v18"/>
    <path d="M33 17h10.5a3 3 0 0 1 2.4 1.2l5.2 6.6a4 4 0 0 1 .7 2.2V30H33z"/>
    <path d="M33 17v13"/>
    <path d="M45 23h5"/>
    <path d="M2 30h60"/>
    <path d="M11 16h13" stroke-opacity=".5"/>
  </g>
  <g fill="#1a5fc9">
    <circle cx="15" cy="34" r="5.5"/>
    <circle cx="15" cy="34" r="2" fill="#ffffff"/>
    <circle cx="45" cy="34" r="5.5"/>
    <circle cx="45" cy="34" r="2" fill="#ffffff"/>
  </g>
</svg>
